<svg width="60" height="60" viewBox="0 0 616 222" fill="none" xmlns="http://www.w3.org/2000/svg">
<path d="M448.935 178L460 163H423H340.75H299.75H159H1.99998V178H159H288.979H329.979H423H448.935Z" fill="black"/>
<path fill-rule="evenodd" clip-rule="evenodd" d="M509 163L498 178H616V163H509Z" fill="black"/>
<path fill-rule="evenodd" clip-rule="evenodd" d="M509 163L498 178H616V163H509Z" fill="black"/>
<path fill-rule="evenodd" clip-rule="evenodd" d="M509 163L498 178H616V163H509Z" fill="black"/>
<path d="M546.885 92.531L583.679 148.353H615L563.914 72.2046L611.352 0H580.334L546.885 50.0578H545.973L512.827 0H481.506L529.248 72.2046L429 222H460.017L545.973 92.531H546.885Z" fill="black"/>
<path d="M380.605 113.122H311.97C312.44 119.39 315.339 124.482 320.667 128.4C325.994 132.318 332.184 134.277 339.236 134.277C350.361 134.277 358.667 130.829 364.151 123.934L374.728 135.451C365.326 145.324 353.025 150.26 337.825 150.26C325.289 150.26 314.79 146.108 306.328 137.803C297.867 129.497 293.636 118.528 293.636 104.895C293.636 91.5753 297.945 80.7629 306.563 72.4577C315.182 64.1526 325.603 60 337.825 60C350.048 60 360.234 63.6825 368.382 71.0474C376.53 78.4124 380.605 88.2062 380.605 100.429V113.122ZM362.271 98.5485C362.271 91.4969 359.998 85.934 355.454 81.8598C351.067 77.7856 345.347 75.7485 338.295 75.7485C331.244 75.7485 325.054 77.8639 319.726 82.0949C314.555 86.3258 311.97 91.8103 311.97 98.5485H362.271ZM424.066 148.85L389.043 61.4103H408.082L434.643 127.46L461.439 61.4103H480.478L445.22 148.85H424.066Z" fill="black"/>
<path d="M158.5 137.5V12.5H216C248.755 12.5 273.5 36.7019 273.5 64.4172V137.5H158.5Z" stroke="black" stroke-width="25"/>
<path fill-rule="evenodd" clip-rule="evenodd" d="M146 0H2V178L146 0Z" fill="black"/>
</svg>
